<svg id="Layer_1" data-name="Layer 1" xmlns="http://www.w3.org/2000/svg" viewBox="0 0 287.6633 203.6827"><defs><style>.cls-1{fill:#4fb1c0;}.cls-2{fill:#ffcb75;}.cls-3{fill:#ffe9b9;}.cls-4{fill:#f8961d;}</style></defs><path class="cls-1" d="M446.8926,202.5884a12.856,12.856,0,0,1,3.6444,10.6227,12.1494,12.1494,0,0,1-.4911,2.503,11.599,11.599,0,0,1-.7113,1.7174c-1.9377,3.8833-11.8942,24.8739-17.5559,56.904a23.3414,23.3414,0,0,1-2.8826,7.8144c-4.4461,7.5463-15.0927,20.0563-36.4868,19.3635,0-2.67-.0875-4.892-.1884-6.3094,6.9836-1.9775,13.1258-7.3791,16.6136-14.6945l.0159-.0318c4.0612-9.02,4.2788-18.3177.6132-26.1773l-.0213-.04c-1.9562-3.9151-4.5124-8.393-8.616-11.91l-.0637-.0531a93.4041,93.4041,0,0,0-10.8006-7.2862l-.0345-.0213c-3.3922-1.8262-8.3585-2.2562-14.7582-1.2767a67.3939,67.3939,0,0,0-14.3255,3.9709l-.0557.0265c-5.8423,2.6544-11.2226,12.1649-14.7795,18.4584-.0663.1141-.1247.223-.1884.3318-2.596-.98-6.8881-1.6138-12.7409.8255-.2681-.5548-.7326-2.02-.8176-5.6113A286.7389,286.7389,0,0,1,364.4511,227.85c17.8239-11.4031,44.6541-25.6463,71.2613-28.7439A13.4217,13.4217,0,0,1,446.8926,202.5884Z" transform="translate(-162.9394 -198.9926)"/><path class="cls-1" d="M422.2522,353.65a33.2187,33.2187,0,0,1-2.0544,24.1068,43.9133,43.9133,0,0,1-26.5462,22.7637c-9.0195,2.8348-31.4488,6.7155-48.6649-16.5207a11.6675,11.6675,0,0,0,1.9748-.77,18.2115,18.2115,0,0,1,4.7805-1.6139c.8521-.1566,1.72-.2628,2.6438-.3743a31.7712,31.7712,0,0,0,4.52-.7724c5.6511-1.505,9.6061-4.4646,11.7561-8.7938,3.27-6.5855,1.3511-14.3654.3451-17.4789l.0159-.0558c2.45-1.5209,9.6274-7.387,17.2719-27l.2415.1114a40.35,40.35,0,0,0,2.8084-10.3387,101.9926,101.9926,0,0,1,19.3157,16.7676C416.4418,340.3014,420.3411,347.02,422.2522,353.65Z" transform="translate(-162.9394 -198.9926)"/><path class="cls-2" d="M406.5836,255.6674c3.26,6.9969,3.0339,15.3369-.6318,23.4857a27.1255,27.1255,0,0,1-2.2508,3.86,2.5751,2.5751,0,0,1-.7671-.661c-1.9537-2.4234-2.1076-9.4043-.43-19.1511a21.9376,21.9376,0,0,0-1.2608-11.9552,53.6487,53.6487,0,0,0-3.3816-7.1482c.3079.2309.6131.4592.9237.6981C402.4242,247.9273,404.6857,251.8691,406.5836,255.6674Z" transform="translate(-162.9394 -198.9926)"/><path class="cls-3" d="M401.28,283.6841a4.7445,4.7445,0,0,0,1.1228,1.0272,22.1968,22.1968,0,0,1-12.2366,7.7242l-1.6006.3451.3823,1.5687a107.0214,107.0214,0,0,1-.51,20.5447l-.069.1168c.0053.0026.0213.0132.05.0292a41.0172,41.0172,0,0,1-2.5854,10.4448c-3.9258.8521-17.7576,4.4434-21.28,13.3488-1.7386,4.3929-.7114,9.3194,3.05,14.6573a3.3436,3.3436,0,0,0,.0611.4964l-.0956.04c.0372.0929,3.7,9.2822.2336,16.2446-1.7253,3.4666-4.9955,5.8635-9.7176,7.1216a29.05,29.05,0,0,1-4.0824.6875c-.9316.1115-1.8925.2283-2.8428.4061a21.2432,21.2432,0,0,0-5.6192,1.8952c-3.52,1.7519-8.2577,1.0034-12.0747-1.9084-2.5322-2.0306-3.7984-4.9186-5.1361-7.9764-.5707-1.3033-1.1627-2.6517-1.8714-3.99l-.4486-.8467-38.78-.0027-.4513.8468c-.7087,1.34-1.2979,2.6862-1.8686,3.99-1.3405,3.0578-2.6066,5.9457-5.1362,7.9763-3.82,2.9145-8.555,3.663-12.0746,1.9085a21.2729,21.2729,0,0,0-5.6193-1.8952c-.95-.1779-1.9138-.292-2.8428-.4061a29.1551,29.1551,0,0,1-4.0851-.6875c-4.7194-1.2582-7.99-3.6551-9.7175-7.1216-2.79-5.6007-.9609-12.6454-.1221-15.2307a2.1,2.1,0,0,0,.6264-1.55c3.7585-5.3352,4.7858-10.2643,3.05-14.6573-3.5249-8.9053-17.3541-12.4967-21.2826-13.3487a40.8519,40.8519,0,0,1-2.5826-10.4449l.0477-.0292-.069-.1168a107.2318,107.2318,0,0,1-.51-20.542l.3849-1.5714-1.6006-.345a22.189,22.189,0,0,1-12.2392-7.7242,4.7538,4.7538,0,0,0,1.1254-1.0272c3.0366-3.7692,2.1474-13.4151.868-20.842a19.8191,19.8191,0,0,1,1.1361-10.8006c1.7094-4.2337,3.6842-8.5735,7.23-12.0348,1.221-.7883,2.4288-1.5236,3.6444-2.219,6.1289-3.2835,19.0822-.1089,26.3232,2.8348,4.8894,2.2509,10.15,11.5544,13.2957,17.1153.0425.0743.0823.1433.1221.2176a1.1064,1.1064,0,0,0-.0823.1035c-2.7685,1.29-7.0367,4.6876-6.8588,9.9618-2.9384,2.32-6.7739,7.3605-4.7726,13.5372a11.4069,11.4069,0,0,0-.8069,13.5266c-1.6483,2.5216-5.6086,9.6831-3.225,17.2957,2.1128,6.7474,8.5868,11.9048,19.2414,15.3316,2.1739,1.4519,4.0266,3.5011,3.8541,4.2868-.0743.3318-.9874,1.067-3.9231,1.4864l-1.8926.2707.6079,1.813c.1088.3238,1.2236,3.2409,6.8137,6.0333,7.0659,3.53,18.02,5.3936,32.5556,5.5317h.0292c14.53-.1381,25.5986-1.9961,32.898-5.5211,5.7281-2.7658,7.0287-5.63,7.1588-5.9484l.77-1.89-2.02-.2893c-2.9729-.4247-4.1912-1.2184-4.3345-1.7731-.2257-.8866,1.3032-2.7791,2.8826-4.0187,10.7846-3.4772,17.4284-8.7249,19.7457-15.597,2.5269-7.4852-.9158-14.4874-2.373-16.9639a11.4088,11.4088,0,0,0-.78-13.5717c2.0014-6.1767-1.8341-11.2173-4.7725-13.5372.1778-5.2742-4.09-8.6718-6.8562-9.9645-.0265-.0345-.0557-.069-.0849-.1035.0424-.0716.08-.1407.1221-.215,3.1454-5.5635,8.4063-14.867,13.2983-17.1152,7.241-2.9437,20.1943-6.1183,26.3232-2.8375,1.2157.6954,2.4234,1.4333,3.6417,2.2217,3.5489,3.4586,5.5211,7.8011,7.2305,12.0348a19.8134,19.8134,0,0,1,1.1387,10.8005C399.1328,270.269,398.2436,279.9123,401.28,283.6841Zm-43.6933,69.1512,1.9111-2.5509c-.4034-.3-10.0838-7.2145-32.16,5.3167a3.5543,3.5543,0,0,1-4.3027-.5946c-3.4878-3.5754-5.7838-5.1468-11.7561-4.1009l-2.8269.4963,1.9165,2.1368c.8839.9847,1.9536,2.8614,1.574,3.6763-.1009.22-.8361,1.3006-5.3406,1.1546-3.6656-.12-5.2795-.9131-5.5715-1.6165-.353-.8574.7433-2.5323,1.4069-3.2357l2.0518-2.1553-2.93-.5123c-5.98-1.0485-7.5543.568-11.0023,4.1063l-.0478.05a3.5585,3.5585,0,0,1-4.3027.592c-22.0762-12.5312-31.7593-5.6167-32.16-5.3167l1.8925,2.5614a5.7032,5.7032,0,0,1,.9131-.4724c-1.5076,3.3232-3.1321,8.4806-1.0909,12.3984,1.6138,3.1,5.0778,4.7779,10.2936,4.9876a12.7028,12.7028,0,0,1,4.4407.9688,9.9881,9.9881,0,0,0,3.8674.8892,5.3211,5.3211,0,0,0,3.5488-1.2343c2.588-2.1951,3.0844-7.0234,1.5-14.7183,1.89.8865,3.655,1.8182,5.2211,2.7074a6.7448,6.7448,0,0,0,8.1568-1.1414l.0478-.0478c2.4552-2.5189,3.3949-3.4851,5.5555-3.4851.0266,0,.0558,0,.085.0026a5.1386,5.1386,0,0,0-.3955,4.2576c.929,2.2668,3.6816,3.4427,8.4143,3.5967q.4578.0159.8918.0159c4.0612,0,6.5-.9874,7.4428-3.0074a5.4866,5.4866,0,0,0-.4831-4.8044c2.6146-.0584,3.9364.94,6.405,3.4746a6.7451,6.7451,0,0,0,8.1568,1.1413c1.5661-.8892,3.3312-1.8235,5.2238-2.71-1.5847,7.6949-1.091,12.5232,1.497,14.721a5.3352,5.3352,0,0,0,3.5515,1.2343,9.9874,9.9874,0,0,0,3.8648-.8919,12.7159,12.7159,0,0,1,4.4434-.9662c5.2158-.21,8.677-1.89,10.2909-4.9875,2.0438-3.9178.4167-9.0779-1.091-12.4011A5.1362,5.1362,0,0,1,357.5869,352.8353Z" transform="translate(-162.9394 -198.9926)"/><path class="cls-2" d="M384.9188,328.4365c-6.9438,16.9188-13.2,22.0789-15.1484,23.353a.8845.8845,0,0,0-.12-.0054,18.2518,18.2518,0,0,1-3.0233-6.4686,9.4429,9.4429,0,0,1,.3929-5.5025C369.6987,333.0391,380.1462,329.6548,384.9188,328.4365Z" transform="translate(-162.9394 -198.9926)"/><path class="cls-1" d="M358.2478,296.4887c1.0565,1.7466,4.4567,8.117,2.2509,14.6122-2.004,5.9006-8.0426,10.49-17.9513,13.6407l-.2549.08-.2123.1593c-.868.645-5.1521,4.0346-4.2709,7.5118.515,2.0279,2.4925,3.0525,4.2789,3.5887-3.0446,2.6676-11.8995,7.6339-35.6772,7.8649-23.8228-.231-32.2769-5.2052-35.0852-7.8383,1.7121-.5123,3.594-1.4918,4.0187-3.43.7777-3.5568-4.3691-7.0844-5.41-7.756l-.1778-.1168-.2017-.0637c-9.72-3.09-15.5652-7.5622-17.37-13.2956-2.0943-6.6465,1.9164-13.2479,3.0684-14.9493,9.76-2.5376,17.524-2.0386,23.0822,1.4891a17.5689,17.5689,0,0,1,7.5092,10.5961c.5229,5.8476,2.4181,10.0521,5.6352,12.4941a11.0941,11.0941,0,0,0,6.9066,2.211c1.1706,2.2934,4.2231,7.3128,8.5284,7.35,3.103.0266,5.8-2.3783,8.2445-7.3472a11.0934,11.0934,0,0,0,6.9013-2.2111c3.217-2.4446,5.1149-6.6465,5.6378-12.494a17.5488,17.5488,0,0,1,7.5065-10.5962C340.7557,294.4661,348.5064,293.9618,358.2478,296.4887Z" transform="translate(-162.9394 -198.9926)"/><path class="cls-2" d="M357.433,283.0577a8.3315,8.3315,0,0,1,1.1121,10.2192c-6.8588-1.72-12.8576-2.0067-17.9328-.8706a32.3541,32.3541,0,0,0-5.3856-8.486,28.21,28.21,0,0,0-13.5558-8.7354,9.74,9.74,0,0,0,4.6053-4.7646c1.9907-4.8707-1.5422-10.0653-2.9915-11.9021.5389-1.8527,1.8634-5.1521,3.886-6.1607a2.7946,2.7946,0,0,1,1.9191-.2124c.1911,6.02,1.4732,7.541,2.4447,8.1542a2.36,2.36,0,0,0,2.2084.21c8.3771-3.74,12.6825-.1487,12.847-.0053l.2124.1884.2548.1035a11.4438,11.4438,0,0,1,3.0552,2.0253,6.43,6.43,0,0,1,2.2482,5.7493l-.1274.9795.82.5521c.276.1885,6.7527,4.65,4.0187,11.2014l-.4088,1.0006Z" transform="translate(-162.9394 -198.9926)"/><path class="cls-1" d="M352.6233,351.3913c1.5315,2.649,4.1248,8.478,2.3305,11.9127-1.0485,2.0094-3.6046,3.1109-7.5941,3.2728a15.8555,15.8555,0,0,0-5.5529,1.2157c-1.0724.4539-3.0366,1.0777-4.1143.162-.82-.6955-2.4526-3.4374.0531-13.8531a35.4963,35.4963,0,0,1,13.224-2.8057C351.5615,351.3064,352.111,351.3409,352.6233,351.3913Z" transform="translate(-162.9394 -198.9926)"/><path class="cls-3" d="M332.7555,285.9323a29.7761,29.7761,0,0,1,4.7778,7.3791,21.08,21.08,0,0,0-4.0877,2.0227,20.4446,20.4446,0,0,0-8.8947,12.7594l-.0186.13c-.4274,4.9318-1.8952,8.39-4.3558,10.2856a7.8015,7.8015,0,0,1-5.6989,1.5395l-1.221-.2282-.515,1.136c-1.9058,4.1912-3.9576,6.4952-5.7785,6.4952h-.0159c-2.7154-.0212-5.4069-4.7991-6.1342-6.4713l-.51-1.1493-1.2343.215a7.8088,7.8088,0,0,1-5.7016-1.54c-2.4632-1.8925-3.9284-5.3538-4.3584-10.2829l-.0159-.1327a20.4647,20.4647,0,0,0-8.8948-12.76,21.3846,21.3846,0,0,0-4.0877-2.0226,29.8223,29.8223,0,0,1,4.7779-7.3791,24.5134,24.5134,0,0,1,17.1046-8.59,52.4425,52.4425,0,0,0,8.6585,1.1308l.3875.0053.05-.0027a52.6958,52.6958,0,0,0,8.6585-1.1307A24.5089,24.5089,0,0,1,332.7555,285.9323Zm-13.7124-.483a3.9882,3.9882,0,1,0-3.9869,3.9894A3.9927,3.9927,0,0,0,319.0431,285.4493Zm0,9.6591a3.9882,3.9882,0,1,0-3.9869,3.9869A3.9927,3.9927,0,0,0,319.0431,295.1084Zm0,9.6566a3.9882,3.9882,0,1,0-3.9869,3.99A3.9922,3.9922,0,0,0,319.0431,304.765Zm0,8.8708a3.9882,3.9882,0,1,0-3.9869,3.9895A3.9927,3.9927,0,0,0,319.0431,313.6358Zm-16.5658-28.1892a3.99,3.99,0,1,0-3.99,3.99A3.9949,3.9949,0,0,0,302.4773,285.4466Zm0,9.6592a3.99,3.99,0,1,0-3.99,3.99A3.9949,3.9949,0,0,0,302.4773,295.1058Zm0,9.6592a3.99,3.99,0,1,0-3.99,3.99A3.9949,3.9949,0,0,0,302.4773,304.765Zm0,8.8682a3.99,3.99,0,1,0-3.99,3.9894A3.9949,3.9949,0,0,0,302.4773,313.6332Z" transform="translate(-162.9394 -198.9926)"/><path class="cls-4" d="M329.8224,246.2047c-.0319.0637-.0611.1274-.0929.1911a.85.85,0,0,0-.1088-.0584C329.69,246.2949,329.756,246.2524,329.8224,246.2047Z" transform="translate(-162.9394 -198.9926)"/><path class="cls-2" d="M315.0562,281.46a3.9895,3.9895,0,1,1-3.9894,3.99A3.9927,3.9927,0,0,1,315.0562,281.46Zm2.1288,3.99a2.13,2.13,0,1,0-2.1288,2.1314A2.1325,2.1325,0,0,0,317.185,285.4493Z" transform="translate(-162.9394 -198.9926)"/><path class="cls-2" d="M315.0562,291.1189a3.9882,3.9882,0,1,1-3.9894,3.99A3.9927,3.9927,0,0,1,315.0562,291.1189Zm2.1288,3.99a2.13,2.13,0,1,0-2.1288,2.1288A2.1325,2.1325,0,0,0,317.185,295.1084Z" transform="translate(-162.9394 -198.9926)"/><path class="cls-2" d="M315.0562,300.7781a3.9882,3.9882,0,1,1-3.9894,3.9869A3.9922,3.9922,0,0,1,315.0562,300.7781Zm2.1288,3.9869a2.13,2.13,0,1,0-2.1288,2.1314A2.1319,2.1319,0,0,0,317.185,304.765Z" transform="translate(-162.9394 -198.9926)"/><path class="cls-2" d="M315.0562,309.6463a3.99,3.99,0,1,1-3.9894,3.99A3.9927,3.9927,0,0,1,315.0562,309.6463Zm2.1288,3.99a2.13,2.13,0,1,0-2.1288,2.1315A2.1324,2.1324,0,0,0,317.185,313.6358Z" transform="translate(-162.9394 -198.9926)"/><path class="cls-2" d="M298.4878,281.4571a3.9895,3.9895,0,1,1-3.99,3.9895A3.9949,3.9949,0,0,1,298.4878,281.4571Zm2.1314,3.9895a2.1315,2.1315,0,1,0-2.1314,2.1314A2.1347,2.1347,0,0,0,300.6192,285.4466Z" transform="translate(-162.9394 -198.9926)"/><path class="cls-2" d="M298.4878,291.1163a3.99,3.99,0,1,1-3.99,3.9895A3.9949,3.9949,0,0,1,298.4878,291.1163Zm2.1314,3.9895a2.1315,2.1315,0,1,0-2.1314,2.1314A2.1348,2.1348,0,0,0,300.6192,295.1058Z" transform="translate(-162.9394 -198.9926)"/><path class="cls-2" d="M298.4878,300.7755a3.9895,3.9895,0,1,1-3.99,3.9895A3.9949,3.9949,0,0,1,298.4878,300.7755Zm2.1314,3.9895a2.1315,2.1315,0,1,0-2.1314,2.1314A2.1348,2.1348,0,0,0,300.6192,304.765Z" transform="translate(-162.9394 -198.9926)"/><path class="cls-2" d="M298.4878,309.6437a3.9895,3.9895,0,1,1-3.99,3.9895A3.9949,3.9949,0,0,1,298.4878,309.6437Zm2.1314,3.9895a2.1315,2.1315,0,1,0-2.1314,2.1314A2.1348,2.1348,0,0,0,300.6192,313.6332Z" transform="translate(-162.9394 -198.9926)"/><path class="cls-2" d="M287.2652,270.4177a9.7509,9.7509,0,0,0,4.6053,4.7645,28.2347,28.2347,0,0,0-13.5558,8.7355,32.2409,32.2409,0,0,0-5.383,8.486c-5.0751-1.1361-11.074-.8468-17.9355.8732a8.3234,8.3234,0,0,1,1.11-10.2139l.783-.7565-.4194-1.006c-2.734-6.5509,3.7426-11.0129,4.016-11.1961l.8282-.5521-.13-.9847c-.7007-5.2424,5.0566-7.6737,5.2981-7.772l.25-.0929.2071-.1884c.18-.1566,4.4858-3.748,12.8629-.008a2.3464,2.3464,0,0,0,2.2058-.21c.9742-.6131,2.2536-2.1341,2.4473-8.1515a2.7721,2.7721,0,0,1,1.9165.2124c2.0252,1.006,3.3471,4.308,3.8886,6.1607C288.81,260.3524,285.2744,265.55,287.2652,270.4177Z" transform="translate(-162.9394 -198.9926)"/><path class="cls-1" d="M281.28,251.7124c-.0849,3.594-.5468,5.0566-.8149,5.6113-5.8528-2.4393-10.1476-1.8049-12.7409-.8228-.0637-.1115-.1247-.2177-.1884-.3318-3.5595-6.2935-8.9372-15.804-14.7794-18.461l-.0584-.0239a67.0987,67.0987,0,0,0-14.3229-3.9709c-6.4023-.98-11.3686-.5495-14.7609,1.2767l-.0345.0186a93.9884,93.9884,0,0,0-10.7979,7.2862l-.0663.0531c-4.1037,3.52-6.6571,7.9949-8.6161,11.9127l-.0185.0372c-3.6683,7.8622-3.4507,17.1577.6131,26.1772l.0133.0319c3.49,7.3153,9.63,12.72,16.6162,14.6971-.1008,1.4174-.1884,3.6365-.1911,6.3094-21.402.69-32.038-11.82-36.4867-19.3662a23.3752,23.3752,0,0,1-2.8826-7.8144c-5.6591-32.0247-15.6156-53.0206-17.5532-56.904a11.2957,11.2957,0,0,1-.7114-1.7147,12.212,12.212,0,0,1-.4937-2.5057,12.8673,12.8673,0,0,1,3.6444-10.6227,13.4145,13.4145,0,0,1,11.18-3.48c26.61,3.0949,53.44,17.3382,71.2614,28.7439A286.5841,286.5841,0,0,1,281.28,251.7124Z" transform="translate(-162.9394 -198.9926)"/><path class="cls-4" d="M278.896,204.903a.6543.6543,0,0,1,.0106.0716,2.3945,2.3945,0,0,0-.3583.0982l-.0292-.0159A3.6049,3.6049,0,0,1,278.896,204.903Z" transform="translate(-162.9394 -198.9926)"/><path class="cls-1" d="M275.7984,354.1014c2.5057,10.413.8706,13.155.0531,13.85-1.08.9158-3.0419.292-4.1169-.1619a15.851,15.851,0,0,0-5.5529-1.2157c-3.9895-.1593-6.5457-1.2608-7.5941-3.2728-1.7944-3.4348.7989-9.2611,2.3331-11.91.51-.0531,1.0591-.0876,1.6537-.0982A35.5625,35.5625,0,0,1,275.7984,354.1014Z" transform="translate(-162.9394 -198.9926)"/><path class="cls-1" d="M266.2772,383.23a11.8029,11.8029,0,0,0,2.23.8361c-17.2108,23.1618-39.6056,19.2838-48.6145,16.4516a43.8943,43.8943,0,0,1-26.5461-22.761,33.1925,33.1925,0,0,1-2.0545-24.1068c1.9085-6.6333,5.8077-13.3514,11.5889-19.9687a102.091,102.091,0,0,1,19.3157-16.77,40.2892,40.2892,0,0,0,2.811,10.3387l.2389-.1115c7.4268,19.05,14.4131,25.1314,17.0515,26.8567-.9821,2.9676-3.06,10.9519.2787,17.678,2.15,4.3293,6.105,7.2889,11.7561,8.7965a32.5913,32.5913,0,0,0,4.5231.7724c.921.1115,1.7916.215,2.6437.3743A18.0011,18.0011,0,0,1,266.2772,383.23Z" transform="translate(-162.9394 -198.9926)"/><path class="cls-2" d="M246.5209,339.81a9.423,9.423,0,0,1,.3955,5.5024,18.2789,18.2789,0,0,1-3.0233,6.4687c-.04,0-.08.0026-.1221.0053-1.9457-1.2741-8.202-6.4341-15.1484-23.353a50.4824,50.4824,0,0,1,6.5987,2.158C239.3886,332.3012,244.7345,335.2874,246.5209,339.81Z" transform="translate(-162.9394 -198.9926)"/><path class="cls-2" d="M214.7563,244.7952c.3132-.2415.6184-.47.9237-.7007a53.692,53.692,0,0,0-3.3817,7.1508,21.96,21.96,0,0,0-1.2608,11.9552c1.68,9.7441,1.5236,16.725-.4273,19.1511a2.5652,2.5652,0,0,1-.7671.6583,26.8885,26.8885,0,0,1-2.2536-3.8594c-3.6656-8.1489-3.8913-16.4862-.6317-23.4857C208.8583,251.8664,211.1172,247.9247,214.7563,244.7952Z" transform="translate(-162.9394 -198.9926)"/></svg>